<?xml version="1.0" encoding="UTF-8" standalone="no"?>
<!-- Created with Inkscape (http://www.inkscape.org/) -->

<svg
   xmlns:dc="http://purl.org/dc/elements/1.1/"
   xmlns:cc="http://creativecommons.org/ns#"
   xmlns:rdf="http://www.w3.org/1999/02/22-rdf-syntax-ns#"
   xmlns:svg="http://www.w3.org/2000/svg"
   xmlns="http://www.w3.org/2000/svg"
   xmlns:sodipodi="http://sodipodi.sourceforge.net/DTD/sodipodi-0.dtd"
   xmlns:inkscape="http://www.inkscape.org/namespaces/inkscape"
   id="svg2"
   version="1.1"
   inkscape:version="0.91 r13725"
   width="168.45262mm"
   height="73.752884mm"
   viewBox="0 0 596.87938 261.32911"
   sodipodi:docname="graph_exampes.svg">
  <metadata
     id="metadata8">
    <rdf:RDF>
      <cc:Work
         rdf:about="">
        <dc:format>image/svg+xml</dc:format>
        <dc:type
           rdf:resource="http://purl.org/dc/dcmitype/StillImage" />
        <dc:title></dc:title>
      </cc:Work>
    </rdf:RDF>
  </metadata>
  <defs
     id="defs6">
    <marker
       inkscape:isstock="true"
       style="overflow:visible"
       id="marker26924"
       refX="0"
       refY="0"
       orient="auto"
       inkscape:stockid="Arrow1Mend">
      <path
         transform="matrix(-0.4,0,0,-0.4,-4,0)"
         style="fill:#000000;fill-opacity:1;fill-rule:evenodd;stroke:#000000;stroke-width:1pt;stroke-opacity:1"
         d="M 0,0 5,-5 -12.5,0 5,5 0,0 Z"
         id="path26926"
         inkscape:connector-curvature="0" />
    </marker>
    <marker
       inkscape:stockid="DotM"
       orient="auto"
       refY="0"
       refX="0"
       id="marker26770"
       style="overflow:visible"
       inkscape:isstock="true">
      <path
         id="path26772"
         d="m -2.5,-1 c 0,2.76 -2.24,5 -5,5 -2.76,0 -5,-2.24 -5,-5 0,-2.76 2.24,-5 5,-5 2.76,0 5,2.24 5,5 z"
         style="fill:#000000;fill-opacity:1;fill-rule:evenodd;stroke:#000000;stroke-width:1pt;stroke-opacity:1"
         transform="matrix(0.4,0,0,0.4,2.96,0.4)"
         inkscape:connector-curvature="0" />
    </marker>
    <marker
       inkscape:stockid="Arrow1Send"
       orient="auto"
       refY="0"
       refX="0"
       id="Arrow1Send"
       style="overflow:visible"
       inkscape:isstock="true">
      <path
         id="path4176"
         d="M 0,0 5,-5 -12.5,0 5,5 0,0 Z"
         style="fill:#000000;fill-opacity:1;fill-rule:evenodd;stroke:#000000;stroke-width:1pt;stroke-opacity:1"
         transform="matrix(-0.2,0,0,-0.2,-1.2,0)"
         inkscape:connector-curvature="0" />
    </marker>
    <marker
       inkscape:stockid="Arrow1Mend"
       orient="auto"
       refY="0"
       refX="0"
       id="marker17701"
       style="overflow:visible"
       inkscape:isstock="true"
       inkscape:collect="always">
      <path
         id="path17703"
         d="M 0,0 5,-5 -12.5,0 5,5 0,0 Z"
         style="fill:#000000;fill-opacity:1;fill-rule:evenodd;stroke:#000000;stroke-width:1pt;stroke-opacity:1"
         transform="matrix(-0.4,0,0,-0.4,-4,0)"
         inkscape:connector-curvature="0" />
    </marker>
    <marker
       inkscape:isstock="true"
       style="overflow:visible"
       id="marker17015"
       refX="0"
       refY="0"
       orient="auto"
       inkscape:stockid="DotM"
       inkscape:collect="always">
      <path
         transform="matrix(0.4,0,0,0.4,2.96,0.4)"
         style="fill:#000000;fill-opacity:1;fill-rule:evenodd;stroke:#000000;stroke-width:1pt;stroke-opacity:1"
         d="m -2.5,-1 c 0,2.76 -2.24,5 -5,5 -2.76,0 -5,-2.24 -5,-5 0,-2.76 2.24,-5 5,-5 2.76,0 5,2.24 5,5 z"
         id="path17017"
         inkscape:connector-curvature="0" />
    </marker>
    <marker
       inkscape:isstock="true"
       style="overflow:visible"
       id="marker16885"
       refX="0"
       refY="0"
       orient="auto"
       inkscape:stockid="DotM">
      <path
         transform="matrix(0.4,0,0,0.4,2.96,0.4)"
         style="fill:#000000;fill-opacity:1;fill-rule:evenodd;stroke:#000000;stroke-width:1pt;stroke-opacity:1"
         d="m -2.5,-1 c 0,2.76 -2.24,5 -5,5 -2.76,0 -5,-2.24 -5,-5 0,-2.76 2.24,-5 5,-5 2.76,0 5,2.24 5,5 z"
         id="path16887"
         inkscape:connector-curvature="0" />
    </marker>
    <marker
       inkscape:isstock="true"
       style="overflow:visible"
       id="marker16817"
       refX="0"
       refY="0"
       orient="auto"
       inkscape:stockid="Arrow1Mend"
       inkscape:collect="always">
      <path
         transform="matrix(-0.4,0,0,-0.4,-4,0)"
         style="fill:#000000;fill-opacity:1;fill-rule:evenodd;stroke:#000000;stroke-width:1pt;stroke-opacity:1"
         d="M 0,0 5,-5 -12.5,0 5,5 0,0 Z"
         id="path16819"
         inkscape:connector-curvature="0" />
    </marker>
    <marker
       inkscape:stockid="Arrow1Mend"
       orient="auto"
       refY="0"
       refX="0"
       id="marker15517"
       style="overflow:visible"
       inkscape:isstock="true"
       inkscape:collect="always">
      <path
         id="path15519"
         d="M 0,0 5,-5 -12.5,0 5,5 0,0 Z"
         style="fill:#000000;fill-opacity:1;fill-rule:evenodd;stroke:#000000;stroke-width:1pt;stroke-opacity:1"
         transform="matrix(-0.4,0,0,-0.4,-4,0)"
         inkscape:connector-curvature="0" />
    </marker>
    <marker
       inkscape:isstock="true"
       style="overflow:visible"
       id="marker15257"
       refX="0"
       refY="0"
       orient="auto"
       inkscape:stockid="DotM">
      <path
         transform="matrix(0.4,0,0,0.4,2.96,0.4)"
         style="fill:#000000;fill-opacity:1;fill-rule:evenodd;stroke:#000000;stroke-width:1pt;stroke-opacity:1"
         d="m -2.5,-1 c 0,2.76 -2.24,5 -5,5 -2.76,0 -5,-2.24 -5,-5 0,-2.76 2.24,-5 5,-5 2.76,0 5,2.24 5,5 z"
         id="path15259"
         inkscape:connector-curvature="0" />
    </marker>
    <marker
       inkscape:isstock="true"
       style="overflow:visible"
       id="marker15151"
       refX="0"
       refY="0"
       orient="auto"
       inkscape:stockid="DotM">
      <path
         transform="matrix(0.4,0,0,0.4,2.96,0.4)"
         style="fill:#000000;fill-opacity:1;fill-rule:evenodd;stroke:#000000;stroke-width:1pt;stroke-opacity:1"
         d="m -2.5,-1 c 0,2.76 -2.24,5 -5,5 -2.76,0 -5,-2.24 -5,-5 0,-2.76 2.24,-5 5,-5 2.76,0 5,2.24 5,5 z"
         id="path15153"
         inkscape:connector-curvature="0" />
    </marker>
    <marker
       inkscape:stockid="DotM"
       orient="auto"
       refY="0"
       refX="0"
       id="marker12205"
       style="overflow:visible"
       inkscape:isstock="true"
       inkscape:collect="always">
      <path
         id="path12207"
         d="m -2.5,-1 c 0,2.76 -2.24,5 -5,5 -2.76,0 -5,-2.24 -5,-5 0,-2.76 2.24,-5 5,-5 2.76,0 5,2.24 5,5 z"
         style="fill:#000000;fill-opacity:1;fill-rule:evenodd;stroke:#000000;stroke-width:1pt;stroke-opacity:1"
         transform="matrix(0.4,0,0,0.4,2.96,0.4)"
         inkscape:connector-curvature="0" />
    </marker>
    <marker
       inkscape:isstock="true"
       style="overflow:visible"
       id="marker8888"
       refX="0"
       refY="0"
       orient="auto"
       inkscape:stockid="Arrow1Mend">
      <path
         transform="matrix(-0.4,0,0,-0.4,-4,0)"
         style="fill:#000000;fill-opacity:1;fill-rule:evenodd;stroke:#000000;stroke-width:1pt;stroke-opacity:1"
         d="M 0,0 5,-5 -12.5,0 5,5 0,0 Z"
         id="path8890"
         inkscape:connector-curvature="0" />
    </marker>
    <marker
       inkscape:isstock="true"
       style="overflow:visible"
       id="marker8794"
       refX="0"
       refY="0"
       orient="auto"
       inkscape:stockid="DotM">
      <path
         transform="matrix(0.4,0,0,0.4,2.96,0.4)"
         style="fill:#000000;fill-opacity:1;fill-rule:evenodd;stroke:#000000;stroke-width:1pt;stroke-opacity:1"
         d="m -2.5,-1 c 0,2.76 -2.24,5 -5,5 -2.76,0 -5,-2.24 -5,-5 0,-2.76 2.24,-5 5,-5 2.76,0 5,2.24 5,5 z"
         id="path8796"
         inkscape:connector-curvature="0" />
    </marker>
    <marker
       inkscape:stockid="DotM"
       orient="auto"
       refY="0"
       refX="0"
       id="marker8686"
       style="overflow:visible"
       inkscape:isstock="true"
       inkscape:collect="always">
      <path
         id="path8688"
         d="m -2.5,-1 c 0,2.76 -2.24,5 -5,5 -2.76,0 -5,-2.24 -5,-5 0,-2.76 2.24,-5 5,-5 2.76,0 5,2.24 5,5 z"
         style="fill:#000000;fill-opacity:1;fill-rule:evenodd;stroke:#000000;stroke-width:1pt;stroke-opacity:1"
         transform="matrix(0.4,0,0,0.4,2.96,0.4)"
         inkscape:connector-curvature="0" />
    </marker>
    <marker
       inkscape:isstock="true"
       style="overflow:visible"
       id="marker7760"
       refX="0"
       refY="0"
       orient="auto"
       inkscape:stockid="Arrow1Mend"
       inkscape:collect="always">
      <path
         transform="matrix(-0.4,0,0,-0.4,-4,0)"
         style="fill:#000000;fill-opacity:1;fill-rule:evenodd;stroke:#000000;stroke-width:1pt;stroke-opacity:1"
         d="M 0,0 5,-5 -12.5,0 5,5 0,0 Z"
         id="path7762"
         inkscape:connector-curvature="0" />
    </marker>
    <marker
       inkscape:isstock="true"
       style="overflow:visible"
       id="marker7690"
       refX="0"
       refY="0"
       orient="auto"
       inkscape:stockid="Arrow1Mend">
      <path
         transform="matrix(-0.4,0,0,-0.4,-4,0)"
         style="fill:#000000;fill-opacity:1;fill-rule:evenodd;stroke:#000000;stroke-width:1pt;stroke-opacity:1"
         d="M 0,0 5,-5 -12.5,0 5,5 0,0 Z"
         id="path7692"
         inkscape:connector-curvature="0" />
    </marker>
    <marker
       inkscape:stockid="Arrow1Mend"
       orient="auto"
       refY="0"
       refX="0"
       id="marker5745"
       style="overflow:visible"
       inkscape:isstock="true"
       inkscape:collect="always">
      <path
         id="path5747"
         d="M 0,0 5,-5 -12.5,0 5,5 0,0 Z"
         style="fill:#000000;fill-opacity:1;fill-rule:evenodd;stroke:#000000;stroke-width:1pt;stroke-opacity:1"
         transform="matrix(-0.4,0,0,-0.4,-4,0)"
         inkscape:connector-curvature="0" />
    </marker>
    <marker
       inkscape:stockid="Arrow1Mend"
       orient="auto"
       refY="0"
       refX="0"
       id="Arrow1Mend"
       style="overflow:visible"
       inkscape:isstock="true"
       inkscape:collect="always">
      <path
         id="path4170"
         d="M 0,0 5,-5 -12.5,0 5,5 0,0 Z"
         style="fill:#000000;fill-opacity:1;fill-rule:evenodd;stroke:#000000;stroke-width:1pt;stroke-opacity:1"
         transform="matrix(-0.4,0,0,-0.4,-4,0)"
         inkscape:connector-curvature="0" />
    </marker>
    <marker
       inkscape:isstock="true"
       style="overflow:visible"
       id="marker5185"
       refX="0"
       refY="0"
       orient="auto"
       inkscape:stockid="DotM"
       inkscape:collect="always">
      <path
         transform="matrix(0.4,0,0,0.4,2.96,0.4)"
         style="fill:#000000;fill-opacity:1;fill-rule:evenodd;stroke:#000000;stroke-width:1pt;stroke-opacity:1"
         d="m -2.5,-1 c 0,2.76 -2.24,5 -5,5 -2.76,0 -5,-2.24 -5,-5 0,-2.76 2.24,-5 5,-5 2.76,0 5,2.24 5,5 z"
         id="path5187"
         inkscape:connector-curvature="0" />
    </marker>
    <marker
       inkscape:isstock="true"
       style="overflow:visible"
       id="marker5139"
       refX="0"
       refY="0"
       orient="auto"
       inkscape:stockid="DotM">
      <path
         transform="matrix(0.4,0,0,0.4,2.96,0.4)"
         style="fill:#000000;fill-opacity:1;fill-rule:evenodd;stroke:#000000;stroke-width:1pt;stroke-opacity:1"
         d="m -2.5,-1 c 0,2.76 -2.24,5 -5,5 -2.76,0 -5,-2.24 -5,-5 0,-2.76 2.24,-5 5,-5 2.76,0 5,2.24 5,5 z"
         id="path5141"
         inkscape:connector-curvature="0" />
    </marker>
    <marker
       inkscape:stockid="DotM"
       orient="auto"
       refY="0"
       refX="0"
       id="marker4949"
       style="overflow:visible"
       inkscape:isstock="true"
       inkscape:collect="always">
      <path
         id="path4951"
         d="m -2.5,-1 c 0,2.76 -2.24,5 -5,5 -2.76,0 -5,-2.24 -5,-5 0,-2.76 2.24,-5 5,-5 2.76,0 5,2.24 5,5 z"
         style="fill:#000000;fill-opacity:1;fill-rule:evenodd;stroke:#000000;stroke-width:1pt;stroke-opacity:1"
         transform="matrix(0.4,0,0,0.4,2.96,0.4)"
         inkscape:connector-curvature="0" />
    </marker>
    <marker
       inkscape:isstock="true"
       style="overflow:visible"
       id="marker4879"
       refX="0"
       refY="0"
       orient="auto"
       inkscape:stockid="DotM">
      <path
         transform="matrix(0.4,0,0,0.4,2.96,0.4)"
         style="fill:#000000;fill-opacity:1;fill-rule:evenodd;stroke:#000000;stroke-width:1pt;stroke-opacity:1"
         d="m -2.5,-1 c 0,2.76 -2.24,5 -5,5 -2.76,0 -5,-2.24 -5,-5 0,-2.76 2.24,-5 5,-5 2.76,0 5,2.24 5,5 z"
         id="path4881"
         inkscape:connector-curvature="0" />
    </marker>
    <marker
       inkscape:isstock="true"
       style="overflow:visible"
       id="marker4823"
       refX="0"
       refY="0"
       orient="auto"
       inkscape:stockid="DotM"
       inkscape:collect="always">
      <path
         transform="matrix(0.4,0,0,0.4,2.96,0.4)"
         style="fill:#000000;fill-opacity:1;fill-rule:evenodd;stroke:#000000;stroke-width:1pt;stroke-opacity:1"
         d="m -2.5,-1 c 0,2.76 -2.24,5 -5,5 -2.76,0 -5,-2.24 -5,-5 0,-2.76 2.24,-5 5,-5 2.76,0 5,2.24 5,5 z"
         id="path4825"
         inkscape:connector-curvature="0" />
    </marker>
    <marker
       inkscape:stockid="DotM"
       orient="auto"
       refY="0"
       refX="0"
       id="DotM"
       style="overflow:visible"
       inkscape:isstock="true"
       inkscape:collect="always">
      <path
         id="path4225"
         d="m -2.5,-1 c 0,2.76 -2.24,5 -5,5 -2.76,0 -5,-2.24 -5,-5 0,-2.76 2.24,-5 5,-5 2.76,0 5,2.24 5,5 z"
         style="fill:#000000;fill-opacity:1;fill-rule:evenodd;stroke:#000000;stroke-width:1pt;stroke-opacity:1"
         transform="matrix(0.4,0,0,0.4,2.96,0.4)"
         inkscape:connector-curvature="0" />
    </marker>
    <marker
       inkscape:isstock="true"
       style="overflow:visible"
       id="marker4709"
       refX="0"
       refY="0"
       orient="auto"
       inkscape:stockid="DotL">
      <path
         inkscape:connector-curvature="0"
         transform="matrix(0.8,0,0,0.8,5.92,0.8)"
         style="fill:#000000;fill-opacity:1;fill-rule:evenodd;stroke:#000000;stroke-width:1pt;stroke-opacity:1"
         d="m -2.5,-1 c 0,2.76 -2.24,5 -5,5 -2.76,0 -5,-2.24 -5,-5 0,-2.76 2.24,-5 5,-5 2.76,0 5,2.24 5,5 z"
         id="path4711" />
    </marker>
  </defs>
  <sodipodi:namedview
     pagecolor="#ffffff"
     bordercolor="#666666"
     borderopacity="1"
     objecttolerance="10"
     gridtolerance="10"
     guidetolerance="10"
     inkscape:pageopacity="0"
     inkscape:pageshadow="2"
     inkscape:window-width="1276"
     inkscape:window-height="985"
     id="namedview4"
     showgrid="false"
     inkscape:zoom="0.57322835"
     inkscape:cx="63.174372"
     inkscape:cy="-155.98721"
     inkscape:window-x="0"
     inkscape:window-y="37"
     inkscape:window-maximized="0"
     inkscape:current-layer="svg2"
     inkscape:document-units="mm"
     units="mm"
     fit-margin-top="0"
     fit-margin-left="0"
     fit-margin-right="0"
     fit-margin-bottom="0" />
  <g
     id="g5258"
     inkscape:export-xdpi="500"
     inkscape:export-ydpi="500"
     transform="translate(-59.480992,-116.6529)">
    <circle
       r="4.5793271"
       cy="132.84406"
       cx="95.729736"
       id="path4140"
       style="opacity:1;fill:#000000;fill-opacity:1;stroke:#000000;stroke-width:1.41732287;stroke-linecap:round;stroke-linejoin:miter;stroke-miterlimit:4;stroke-dasharray:none;stroke-dashoffset:0;stroke-opacity:1" />
    <circle
       style="opacity:1;fill:#000000;fill-opacity:1;stroke:#000000;stroke-width:1.41732287;stroke-linecap:round;stroke-linejoin:miter;stroke-miterlimit:4;stroke-dasharray:none;stroke-dashoffset:0;stroke-opacity:1"
       id="circle4142"
       cx="149.37329"
       cy="121.94089"
       r="4.5793271" />
    <circle
       r="4.5793271"
       cy="161.19226"
       cx="192.11368"
       id="circle4144"
       style="opacity:1;fill:#000000;fill-opacity:1;stroke:#000000;stroke-width:1.41732287;stroke-linecap:round;stroke-linejoin:miter;stroke-miterlimit:4;stroke-dasharray:none;stroke-dashoffset:0;stroke-opacity:1" />
    <circle
       style="opacity:1;fill:#000000;fill-opacity:1;stroke:#000000;stroke-width:1.41732287;stroke-linecap:round;stroke-linejoin:miter;stroke-miterlimit:4;stroke-dasharray:none;stroke-dashoffset:0;stroke-opacity:1"
       id="circle4146"
       cx="144.5759"
       cy="173.40381"
       r="4.5793271" />
    <circle
       r="4.5793271"
       cy="193.0295"
       cx="94.421364"
       id="circle4148"
       style="opacity:1;fill:#000000;fill-opacity:1;stroke:#000000;stroke-width:1.41732287;stroke-linecap:round;stroke-linejoin:miter;stroke-miterlimit:4;stroke-dasharray:none;stroke-dashoffset:0;stroke-opacity:1" />
    <circle
       style="opacity:1;fill:#000000;fill-opacity:1;stroke:#000000;stroke-width:1.41732287;stroke-linecap:round;stroke-linejoin:miter;stroke-miterlimit:4;stroke-dasharray:none;stroke-dashoffset:0;stroke-opacity:1"
       id="circle4150"
       cx="151.1178"
       cy="206.54941"
       r="4.5793271" />
  </g>
  <path
     style="fill:none;fill-rule:evenodd;stroke:#000000;stroke-width:1.77165353;stroke-linecap:butt;stroke-linejoin:miter;stroke-miterlimit:4;stroke-dasharray:none;stroke-opacity:1;marker-mid:url(#DotM)"
     d="m 202.10583,13.325281 55.81982,75.61811 43.17431,-45.02464 -49.95884,11.71874"
     id="path4152"
     inkscape:connector-curvature="0"
     sodipodi:nodetypes="cccc"
     inkscape:export-xdpi="500"
     inkscape:export-ydpi="500" />
  <path
     style="fill:none;fill-rule:evenodd;stroke:#000000;stroke-width:1.77165353;stroke-linecap:butt;stroke-linejoin:miter;stroke-miterlimit:4;stroke-dasharray:none;stroke-opacity:1;marker-mid:url(#marker4823)"
     d="m 201.18228,78.458201 49.95884,-22.51232 7.09292,-51.8477199 -56.1266,9.2516399 0,63.52791 55.97241,-72.7024499"
     id="path4154"
     inkscape:connector-curvature="0"
     sodipodi:nodetypes="cccccc"
     inkscape:export-xdpi="500"
     inkscape:export-ydpi="500" />
  <path
     style="fill:none;fill-rule:evenodd;stroke:#000000;stroke-width:1.77165353;stroke-linecap:butt;stroke-linejoin:miter;stroke-miterlimit:4;stroke-dasharray:none;stroke-opacity:1;marker-start:url(#marker4949);marker-mid:url(#marker4879);marker-end:url(#marker4879)"
     d="m 344.89104,64.147081 c 7.76286,-22.02062 21.89821,-33.84643 48.25175,-31.45557 l 50.1085,-0.29288"
     id="path4545"
     inkscape:connector-curvature="0"
     sodipodi:nodetypes="ccc" />
  <path
     style="fill:none;fill-rule:evenodd;stroke:#000000;stroke-width:1.77165353;stroke-linecap:butt;stroke-linejoin:miter;stroke-miterlimit:4;stroke-dasharray:none;stroke-opacity:1"
     d="m 443.59079,32.545891 c -15.58775,9.60591 -32.31657,11.45251 -50.80873,1.30838 -3.92572,29.11052 -27.07865,28.09841 -47.75583,30.96497 l 47.10164,-30.74691 c 17.52041,-18.07632 34.51412,-11.9247 51.46292,-3.70708"
     id="path4629"
     inkscape:connector-curvature="0"
     sodipodi:nodetypes="ccccc"
     inkscape:export-xdpi="500"
     inkscape:export-ydpi="500" />
  <ellipse
     style="opacity:1;fill:none;fill-opacity:1;stroke:#000000;stroke-width:1.77165353;stroke-linecap:round;stroke-linejoin:miter;stroke-miterlimit:4;stroke-dasharray:none;stroke-dashoffset:0;stroke-opacity:1;marker-end:url(#marker5185)"
     id="path5079"
     cx="538.01208"
     cy="38.215523"
     rx="54.951923"
     ry="36.634617"
     inkscape:export-xdpi="500"
     inkscape:export-ydpi="500" />
  <g
     id="g8570"
     transform="translate(-42.90819,-612.09247)"
     inkscape:export-xdpi="500"
     inkscape:export-ydpi="500">
    <circle
       r="4.5793271"
       cy="855.7981"
       cx="48.196178"
       id="circle4148-3"
       style="opacity:1;fill:#000000;fill-opacity:1;stroke:#000000;stroke-width:1.41732287;stroke-linecap:round;stroke-linejoin:miter;stroke-miterlimit:4;stroke-dasharray:none;stroke-dashoffset:0;stroke-opacity:1" />
    <circle
       style="opacity:1;fill:#000000;fill-opacity:1;stroke:#000000;stroke-width:1.41732287;stroke-linecap:round;stroke-linejoin:miter;stroke-miterlimit:4;stroke-dasharray:none;stroke-dashoffset:0;stroke-opacity:1"
       id="circle5281"
       cx="104.32278"
       cy="868.13361"
       r="4.5793271" />
    <circle
       style="opacity:1;fill:#000000;fill-opacity:1;stroke:#000000;stroke-width:1.41732287;stroke-linecap:round;stroke-linejoin:miter;stroke-miterlimit:4;stroke-dasharray:none;stroke-dashoffset:0;stroke-opacity:1"
       id="circle5285"
       cx="102.47245"
       cy="782.40173"
       r="4.5793271" />
    <circle
       r="4.5793271"
       cy="812.93213"
       cx="172.7849"
       id="circle5287"
       style="opacity:1;fill:#000000;fill-opacity:1;stroke:#000000;stroke-width:1.41732287;stroke-linecap:round;stroke-linejoin:miter;stroke-miterlimit:4;stroke-dasharray:none;stroke-dashoffset:0;stroke-opacity:1" />
    <circle
       style="opacity:1;fill:#000000;fill-opacity:1;stroke:#000000;stroke-width:1.41732287;stroke-linecap:round;stroke-linejoin:miter;stroke-miterlimit:4;stroke-dasharray:none;stroke-dashoffset:0;stroke-opacity:1"
       id="circle5289"
       cx="157.05711"
       cy="854.87292"
       r="4.5793271" />
    <path
       inkscape:connection-end="#circle5281"
       sodipodi:nodetypes="cc"
       inkscape:connector-curvature="0"
       inkscape:connector-type="polyline"
       id="path5291"
       d="m 47.271016,856.41484 52.566169,10.7974"
       style="display:inline;fill:none;fill-rule:evenodd;stroke:#000000;stroke-width:1px;stroke-linecap:butt;stroke-linejoin:miter;stroke-opacity:1;marker-end:url(#Arrow1Mend)" />
    <path
       inkscape:connection-end="#circle5289"
       sodipodi:nodetypes="cc"
       inkscape:connection-start="#circle5281"
       inkscape:connector-curvature="0"
       inkscape:connector-type="polyline"
       id="path5435"
       d="m 108.76382,867.01685 43.85225,-11.02717"
       style="display:inline;fill:none;fill-rule:evenodd;stroke:#000000;stroke-width:1px;stroke-linecap:butt;stroke-linejoin:miter;stroke-opacity:1;marker-end:url(#marker5745)" />
    <path
       inkscape:connection-end="#circle4148-3"
       inkscape:connection-start="#circle4148-3"
       inkscape:connector-curvature="0"
       inkscape:connector-type="polyline"
       id="path5733"
       d="m 48.196178,855.7981 0,0"
       style="fill:none;fill-rule:evenodd;stroke:#000000;stroke-width:1px;stroke-linecap:butt;stroke-linejoin:miter;stroke-opacity:1" />
    <circle
       style="opacity:1;fill:#000000;fill-opacity:1;stroke:#000000;stroke-width:1.41732287;stroke-linecap:round;stroke-linejoin:miter;stroke-miterlimit:4;stroke-dasharray:none;stroke-dashoffset:0;stroke-opacity:1"
       id="circle5281-7"
       cx="119.58799"
       cy="828.19733"
       r="4.5793271" />
    <path
       inkscape:connection-end="#circle5281-7"
       inkscape:connection-start="#circle5281"
       inkscape:connector-curvature="0"
       inkscape:connector-type="polyline"
       id="path7664"
       d="m 105.95778,863.85618 11.99521,-31.38142"
       style="fill:none;fill-rule:evenodd;stroke:#000000;stroke-width:1px;stroke-linecap:butt;stroke-linejoin:miter;stroke-opacity:1" />
    <path
       inkscape:connection-end="#circle5287"
       inkscape:connection-start="#circle5281-7"
       inkscape:connector-curvature="0"
       inkscape:connector-type="polyline"
       id="path7666"
       d="M 123.98962,826.93425 168.38327,814.1952"
       style="fill:none;fill-rule:evenodd;stroke:#000000;stroke-width:1;stroke-linecap:butt;stroke-linejoin:miter;stroke-miterlimit:4;stroke-dasharray:none;stroke-opacity:1;marker-end:url(#marker7760)" />
    <path
       inkscape:connection-end="#circle5285"
       inkscape:connection-start="#circle5281-7"
       inkscape:connector-curvature="0"
       inkscape:connector-type="polyline"
       id="path7670"
       d="M 117.98484,823.90783 104.0756,786.69123"
       style="fill:none;fill-rule:evenodd;stroke:#000000;stroke-width:1px;stroke-linecap:butt;stroke-linejoin:miter;stroke-opacity:1;marker-end:url(#marker7690)" />
  </g>
  <g
     id="g22768"
     transform="translate(-69.349405,-464.51447)"
     inkscape:export-xdpi="500"
     inkscape:export-ydpi="500">
    <path
       sodipodi:nodetypes="ccc"
       inkscape:connector-curvature="0"
       id="path8584"
       d="m 262.24103,684.6022 c 40.85787,30.58042 77.8014,27.35696 114.72351,-0.54516 -44.24463,-36.76997 -79.70357,-24.91584 -114.72351,0.54516 z"
       style="fill:none;fill-rule:evenodd;stroke:#000000;stroke-width:1.77165353;stroke-linecap:butt;stroke-linejoin:miter;stroke-miterlimit:4;stroke-dasharray:none;stroke-opacity:1;marker-start:url(#marker8686);marker-mid:url(#marker12205)" />
    <path
       style="fill:none;fill-rule:evenodd;stroke:#000000;stroke-width:1.77165353;stroke-linecap:butt;stroke-linejoin:miter;stroke-miterlimit:4;stroke-dasharray:none;stroke-opacity:1;marker-end:url(#marker15517)"
       d="m 262.24103,684.6022 c 38.94278,29.14706 74.32957,27.58487 109.53114,3.21472 1.7311,-1.19845 -0.24531,0.60083 1.4853,-0.707"
       id="path15149"
       inkscape:connector-curvature="0"
       sodipodi:nodetypes="csc" />
    <path
       sodipodi:nodetypes="csc"
       inkscape:connector-curvature="0"
       id="path15653"
       d="m 262.24102,684.68554 c 38.94278,-29.14706 70.84057,-31.89162 106.04214,-7.52147 1.7311,1.19845 3.46176,2.01593 5.19237,3.32376"
       style="fill:none;fill-rule:evenodd;stroke:#000000;stroke-width:1.77165353;stroke-linecap:butt;stroke-linejoin:miter;stroke-miterlimit:4;stroke-dasharray:none;stroke-opacity:1;marker-end:url(#marker16817)" />
  </g>
  <path
     style="opacity:1;fill:none;fill-opacity:1;stroke:#000000;stroke-width:1.77165353;stroke-linecap:butt;stroke-linejoin:miter;stroke-miterlimit:4;stroke-dasharray:none;stroke-dashoffset:0;stroke-opacity:1;marker-start:url(#marker16885);marker-end:url(#Arrow1Send)"
     d="m 407.61038,218.11766 c 10e-6,13.1272 -13.81468,23.76889 -30.85595,23.76889 -17.04127,0 -30.85594,-10.6417 -30.85594,-23.76889 1e-5,-13.12719 13.81468,-23.76888 30.85594,-23.76888 13.7293,0 24.97883,7.2927 28.98278,16.84208"
     id="path22783"
     inkscape:connector-curvature="0"
     sodipodi:nodetypes="csssc"
     inkscape:export-xdpi="500"
     inkscape:export-ydpi="500" />
  <g
     id="g28001"
     transform="translate(-36.04351,-407.77109)"
     inkscape:export-xdpi="500"
     inkscape:export-ydpi="500">
    <path
       sodipodi:nodetypes="cc"
       inkscape:connector-curvature="0"
       id="path26310"
       d="m 495.87569,618.90689 c 37.64514,-34.48678 85.85282,-24.15589 110.33997,0.87226"
       style="fill:none;fill-rule:evenodd;stroke:#000000;stroke-width:1.77165353;stroke-linecap:butt;stroke-linejoin:miter;stroke-miterlimit:4;stroke-dasharray:none;stroke-opacity:1;marker-start:url(#marker17015);marker-end:url(#marker17701)" />
    <path
       style="fill:none;fill-rule:evenodd;stroke:#000000;stroke-width:1.77165353;stroke-linecap:butt;stroke-linejoin:miter;stroke-miterlimit:4;stroke-dasharray:none;stroke-opacity:1;marker-start:url(#marker26770);marker-end:url(#marker26924)"
       d="m 607.16355,625.71572 c -37.64514,34.48678 -85.85282,24.15589 -110.33997,-0.87226"
       id="path26768"
       inkscape:connector-curvature="0"
       sodipodi:nodetypes="cc" />
  </g>
</svg>
