<?xml version="1.0" encoding="utf-8" ?>
<svg baseProfile="full" height="600" version="1.1" width="600" xmlns="http://www.w3.org/2000/svg" xmlns:ev="http://www.w3.org/2001/xml-events" xmlns:xlink="http://www.w3.org/1999/xlink"><defs /><g><circle cx="300.0" cy="300.0" fill="none" r="100.0" stroke="black" stroke-width="0.5mm" /></g><circle cx="300.0" cy="300.0" fill="none" r="200.0" stroke="black" stroke-width="0.5mm" /><circle cx="300.0" cy="300.0" fill="none" r="300.0" stroke="black" stroke-width="0.5mm" /><g transform="translate(190.0,280.0)"><circle cx="20.0" cy="20.0" fill="#ffffff" r="20.0" stroke="black" stroke-width="0.5mm" /><text font-family="GOST Type B" font-style="italic" text-anchor="middle" x="20.0" y="20.0">358</text></g><g transform="translate(422.79999999999995,89.6)"><circle cx="20.0" cy="20.0" fill="#ffffff" r="20.0" stroke="black" stroke-width="0.5mm" /><text font-family="GOST Type B" font-style="italic" text-anchor="middle" x="20.0" y="20.0">230</text></g><g transform="translate(362.0,288.2)"><circle cx="20.0" cy="20.0" fill="#ffffff" r="20.0" stroke="black" stroke-width="0.5mm" /><text font-family="GOST Type B" font-style="italic" text-anchor="middle" x="20.0" y="20.0">175</text></g><g transform="translate(291.2,291.2)"><circle cx="20.0" cy="20.0" fill="#ffffff" r="20.0" stroke="black" stroke-width="0.5mm" /><text font-family="GOST Type B" font-style="italic" text-anchor="middle" x="20.0" y="20.0">317</text></g><g transform="translate(284.9,275.1)"><circle cx="20.0" cy="20.0" fill="#ffffff" r="20.0" stroke="black" stroke-width="0.5mm" /><text font-family="GOST Type B" font-style="italic" text-anchor="middle" x="20.0" y="20.0">227</text></g><g transform="translate(223.3,450.1)"><circle cx="20.0" cy="20.0" fill="#ffffff" r="20.0" stroke="black" stroke-width="0.5mm" /><text font-family="GOST Type B" font-style="italic" text-anchor="middle" x="20.0" y="20.0">250</text></g><g transform="translate(201.7,236.5)"><circle cx="20.0" cy="20.0" fill="#ffffff" r="20.0" stroke="black" stroke-width="0.5mm" /><text font-family="GOST Type B" font-style="italic" text-anchor="middle" x="20.0" y="20.0">333</text></g><g transform="translate(225.0,181.0)"><circle cx="20.0" cy="20.0" fill="#ffffff" r="20.0" stroke="black" stroke-width="0.5mm" /><text font-family="GOST Type B" font-style="italic" text-anchor="middle" x="20.0" y="20.0">117</text></g><g transform="translate(367.0,253.9)"><circle cx="20.0" cy="20.0" fill="#ffffff" r="20.0" stroke="black" stroke-width="0.5mm" /><text font-family="GOST Type B" font-style="italic" text-anchor="middle" x="20.0" y="20.0">16</text></g><g transform="translate(238.6,335.2)"><circle cx="20.0" cy="20.0" fill="#ffffff" r="20.0" stroke="black" stroke-width="0.5mm" /><text font-family="GOST Type B" font-style="italic" text-anchor="middle" x="20.0" y="20.0">56</text></g><g transform="translate(294.4,299.2)"><circle cx="20.0" cy="20.0" fill="#ffffff" r="20.0" stroke="black" stroke-width="0.5mm" /><text font-family="GOST Type B" font-style="italic" text-anchor="middle" x="20.0" y="20.0">306</text></g><g transform="translate(282.8,277.2)"><circle cx="20.0" cy="20.0" fill="#ffffff" r="20.0" stroke="black" stroke-width="0.5mm" /><text font-family="GOST Type B" font-style="italic" text-anchor="middle" x="20.0" y="20.0">222</text></g><g transform="translate(265.6,299.2)"><circle cx="20.0" cy="20.0" fill="#ffffff" r="20.0" stroke="black" stroke-width="0.5mm" /><text font-family="GOST Type B" font-style="italic" text-anchor="middle" x="20.0" y="20.0">54</text></g><g transform="translate(540.1,366.7)"><circle cx="20.0" cy="20.0" fill="#ffffff" r="20.0" stroke="black" stroke-width="0.5mm" /><text font-family="GOST Type B" font-style="italic" text-anchor="middle" x="20.0" y="20.0">161</text></g><g transform="translate(321.7,419.0)"><circle cx="20.0" cy="20.0" fill="#ffffff" r="20.0" stroke="black" stroke-width="0.5mm" /><text font-family="GOST Type B" font-style="italic" text-anchor="middle" x="20.0" y="20.0">285</text></g><g transform="translate(125.0,326.5)"><circle cx="20.0" cy="20.0" fill="#ffffff" r="20.0" stroke="black" stroke-width="0.5mm" /><text font-family="GOST Type B" font-style="italic" text-anchor="middle" x="20.0" y="20.0">16</text></g><g transform="translate(262.0,312.4)"><circle cx="20.0" cy="20.0" fill="#ffffff" r="20.0" stroke="black" stroke-width="0.5mm" /><text font-family="GOST Type B" font-style="italic" text-anchor="middle" x="20.0" y="20.0">240</text></g><g transform="translate(280.0,389.0)"><circle cx="20.0" cy="20.0" fill="#ffffff" r="20.0" stroke="black" stroke-width="0.5mm" /><text font-family="GOST Type B" font-style="italic" text-anchor="middle" x="20.0" y="20.0">89</text></g><g transform="translate(470.4,137.20000000000002)"><circle cx="20.0" cy="20.0" fill="#ffffff" r="20.0" stroke="black" stroke-width="0.5mm" /><text font-family="GOST Type B" font-style="italic" text-anchor="middle" x="20.0" y="20.0">219</text></g><g transform="translate(74.39999999999998,459.9)"><circle cx="20.0" cy="20.0" fill="#ffffff" r="20.0" stroke="black" stroke-width="0.5mm" /><text font-family="GOST Type B" font-style="italic" text-anchor="middle" x="20.0" y="20.0">41</text></g><g transform="translate(282.7,289.0)"><circle cx="20.0" cy="20.0" fill="#ffffff" r="20.0" stroke="black" stroke-width="0.5mm" /><text font-family="GOST Type B" font-style="italic" text-anchor="middle" x="20.0" y="20.0">286</text></g><g transform="translate(183.0,250.9)"><circle cx="20.0" cy="20.0" fill="#ffffff" r="20.0" stroke="black" stroke-width="0.5mm" /><text font-family="GOST Type B" font-style="italic" text-anchor="middle" x="20.0" y="20.0">345</text></g><g transform="translate(77.0,483.0)"><circle cx="20.0" cy="20.0" fill="#ffffff" r="20.0" stroke="black" stroke-width="0.5mm" /><text font-family="GOST Type B" font-style="italic" text-anchor="middle" x="20.0" y="20.0">45</text></g><g transform="translate(280.0,411.0)"><circle cx="20.0" cy="20.0" fill="#ffffff" r="20.0" stroke="black" stroke-width="0.5mm" /><text font-family="GOST Type B" font-style="italic" text-anchor="middle" x="20.0" y="20.0">91</text></g><g transform="translate(390.5,478.9)"><circle cx="20.0" cy="20.0" fill="#ffffff" r="20.0" stroke="black" stroke-width="0.5mm" /><text font-family="GOST Type B" font-style="italic" text-anchor="middle" x="20.0" y="20.0">299</text></g><g transform="translate(235.4,503.0)"><circle cx="20.0" cy="20.0" fill="#ffffff" r="20.0" stroke="black" stroke-width="0.5mm" /><text font-family="GOST Type B" font-style="italic" text-anchor="middle" x="20.0" y="20.0">260</text></g><g transform="translate(342.0,419.5)"><circle cx="20.0" cy="20.0" fill="#ffffff" r="20.0" stroke="black" stroke-width="0.5mm" /><text font-family="GOST Type B" font-style="italic" text-anchor="middle" x="20.0" y="20.0">116</text></g><g transform="translate(145.5,37.900000000000006)"><circle cx="20.0" cy="20.0" fill="#ffffff" r="20.0" stroke="black" stroke-width="0.5mm" /><text font-family="GOST Type B" font-style="italic" text-anchor="middle" x="20.0" y="20.0">121</text></g><g transform="translate(259.7,259.7)"><circle cx="20.0" cy="20.0" fill="#ffffff" r="20.0" stroke="black" stroke-width="0.5mm" /><text font-family="GOST Type B" font-style="italic" text-anchor="middle" x="20.0" y="20.0">136</text></g><g transform="translate(86.80000000000001,86.80000000000001)"><circle cx="20.0" cy="20.0" fill="#ffffff" r="20.0" stroke="black" stroke-width="0.5mm" /><text font-family="GOST Type B" font-style="italic" text-anchor="middle" x="20.0" y="20.0">135</text></g><g transform="translate(325.6,245.8)"><circle cx="20.0" cy="20.0" fill="#ffffff" r="20.0" stroke="black" stroke-width="0.5mm" /><text font-family="GOST Type B" font-style="italic" text-anchor="middle" x="20.0" y="20.0">216</text></g><g transform="translate(229.2,394.3)"><circle cx="20.0" cy="20.0" fill="#ffffff" r="20.0" stroke="black" stroke-width="0.5mm" /><text font-family="GOST Type B" font-style="italic" text-anchor="middle" x="20.0" y="20.0">65</text></g><g transform="translate(273.7,273.7)"><circle cx="20.0" cy="20.0" fill="#ffffff" r="20.0" stroke="black" stroke-width="0.5mm" /><text font-family="GOST Type B" font-style="italic" text-anchor="middle" x="20.0" y="20.0">316</text></g><g transform="translate(258.3,63.0)"><circle cx="20.0" cy="20.0" fill="#ffffff" r="20.0" stroke="black" stroke-width="0.5mm" /><text font-family="GOST Type B" font-style="italic" text-anchor="middle" x="20.0" y="20.0">98</text></g><g transform="translate(182.5,104.5)"><circle cx="20.0" cy="20.0" fill="#ffffff" r="20.0" stroke="black" stroke-width="0.5mm" /><text font-family="GOST Type B" font-style="italic" text-anchor="middle" x="20.0" y="20.0">117</text></g><g transform="translate(325.0,208.0)"><circle cx="20.0" cy="20.0" fill="#ffffff" r="20.0" stroke="black" stroke-width="0.5mm" /><text font-family="GOST Type B" font-style="italic" text-anchor="middle" x="20.0" y="20.0">238</text></g><g transform="translate(486.0,300.6)"><circle cx="20.0" cy="20.0" fill="#ffffff" r="20.0" stroke="black" stroke-width="0.5mm" /><text font-family="GOST Type B" font-style="italic" text-anchor="middle" x="20.0" y="20.0">353</text></g><g transform="translate(299.2,222.4)"><circle cx="20.0" cy="20.0" fill="#ffffff" r="20.0" stroke="black" stroke-width="0.5mm" /><text font-family="GOST Type B" font-style="italic" text-anchor="middle" x="20.0" y="20.0">250</text></g><g transform="translate(396.0,541.0)"><circle cx="20.0" cy="20.0" fill="#ffffff" r="20.0" stroke="black" stroke-width="0.5mm" /><text font-family="GOST Type B" font-style="italic" text-anchor="middle" x="20.0" y="20.0">291</text></g><g transform="translate(3.0,280.0)"><circle cx="20.0" cy="20.0" fill="#ffffff" r="20.0" stroke="black" stroke-width="0.5mm" /><text font-family="GOST Type B" font-style="italic" text-anchor="middle" x="20.0" y="20.0">359</text></g><g transform="translate(322.7,237.3)"><circle cx="20.0" cy="20.0" fill="#ffffff" r="20.0" stroke="black" stroke-width="0.5mm" /><text font-family="GOST Type B" font-style="italic" text-anchor="middle" x="20.0" y="20.0">42</text></g><g transform="translate(384.0,358.0)"><circle cx="20.0" cy="20.0" fill="#ffffff" r="20.0" stroke="black" stroke-width="0.5mm" /><text font-family="GOST Type B" font-style="italic" text-anchor="middle" x="20.0" y="20.0">143</text></g><g transform="translate(175.0,112.0)"><circle cx="20.0" cy="20.0" fill="#ffffff" r="20.0" stroke="black" stroke-width="0.5mm" /><text font-family="GOST Type B" font-style="italic" text-anchor="middle" x="20.0" y="20.0">122</text></g><g transform="translate(424.9,424.9)"><circle cx="20.0" cy="20.0" fill="#ffffff" r="20.0" stroke="black" stroke-width="0.5mm" /><text font-family="GOST Type B" font-style="italic" text-anchor="middle" x="20.0" y="20.0">135</text></g><g transform="translate(311.0,329.6)"><circle cx="20.0" cy="20.0" fill="#ffffff" r="20.0" stroke="black" stroke-width="0.5mm" /><text font-family="GOST Type B" font-style="italic" text-anchor="middle" x="20.0" y="20.0">302</text></g><g transform="translate(290.0,257.5)"><circle cx="20.0" cy="20.0" fill="#ffffff" r="20.0" stroke="black" stroke-width="0.5mm" /><text font-family="GOST Type B" font-style="italic" text-anchor="middle" x="20.0" y="20.0">67</text></g><g transform="translate(70.29999999999998,349.9)"><circle cx="20.0" cy="20.0" fill="#ffffff" r="20.0" stroke="black" stroke-width="0.5mm" /><text font-family="GOST Type B" font-style="italic" text-anchor="middle" x="20.0" y="20.0">20</text></g><g transform="translate(239.2,188.2)"><circle cx="20.0" cy="20.0" fill="#ffffff" r="20.0" stroke="black" stroke-width="0.5mm" /><text font-family="GOST Type B" font-style="italic" text-anchor="middle" x="20.0" y="20.0">112</text></g><g transform="translate(295.6,358.0)"><circle cx="20.0" cy="20.0" fill="#ffffff" r="20.0" stroke="black" stroke-width="0.5mm" /><text font-family="GOST Type B" font-style="italic" text-anchor="middle" x="20.0" y="20.0">280</text></g><g transform="translate(70.29999999999998,186.8)"><circle cx="20.0" cy="20.0" fill="#ffffff" r="20.0" stroke="black" stroke-width="0.5mm" /><text font-family="GOST Type B" font-style="italic" text-anchor="middle" x="20.0" y="20.0">335</text></g><g transform="translate(275.0,275.0)"><circle cx="25.0" cy="25.0" fill="#ffffff" r="25.0" stroke="black" stroke-width="0.5mm" /><text font-family="GOST Type B" font-style="italic" text-anchor="middle" x="25.0" y="25.0">B</text></g></svg>